<?xml version="1.0" encoding="utf-8"?>
<!-- Generator: Adobe Illustrator 22.1.0, SVG Export Plug-In . SVG Version: 6.00 Build 0)  -->
<svg version="1.1" id="Layer_1" xmlns="http://www.w3.org/2000/svg" xmlns:xlink="http://www.w3.org/1999/xlink" x="0px" y="0px"
	 viewBox="0 0 976.1 248.9" style="enable-background:new 0 0 976.1 248.9;" xml:space="preserve">
<style type="text/css">
	.st0{fill:#FFFFFF;}
</style>
<g transform="translate(0.000000,177.000000) scale(0.100000,-0.100000)">
	<path class="st0" d="M808.2,1651.9C625.8,1545.4,594,1517.8,594,1458.4v-38.7l-48.4,20.7c-26.3,9.7-55.3,19.3-65,19.3
		c-30.4,0-374.6-205.9-407.7-243.3c-30.4-33.2-31.8-45.6-31.8-251.5c0-171.4,4.1-223.9,20.7-247.4C72.9,701,139.3,655.4,207,616.7
		c69.1-38.7,124.4-76,124.4-81.5s-58-42.8-129.9-82.9C122.7,406.6,66,365.1,56.3,344.4C48,325,41.1,224.1,41.1,99.7
		c0-182.4,2.8-217,24.9-240.5c29-35.9,377.3-237.7,407.7-237.7c12.4,0,42.8,12.4,67.7,27.6l45.6,27.6l6.9-73.3l6.9-71.9l199-113.3
		c110.6-63.6,212.8-114.7,228.1-114.7s116.1,51.1,225.3,113.3l197.6,113.3v73.3c0,40.1,4.1,73.3,11.1,73.3c5.5,0,29-12.4,51.1-27.6
		c23.5-15.2,52.5-27.6,65-27.6c13.8,0,112,49.8,217,112c158.9,91.2,194.9,118.9,207.3,153.4c22.1,60.8,19.3,410.5-2.8,453.3
		c-9.7,19.3-66.3,63.6-127.2,99.5c-181.1,105-179.7,89.8-24.9,176.9c80.2,45.6,142.4,89.8,152,110.6c23.5,47,23.5,422.9,0,469.9
		c-23.5,45.6-387,262.6-440.9,262.6c-22.1,0-55.3-9.7-73.3-22.1c-34.6-22.1-34.6-22.1-34.6,24.9c0,26.3-8.3,56.7-16.6,69.1
		c-9.7,11.1-95.4,66.3-189.4,120.2c-127.2,73.3-183.8,98.1-221.1,98.1C987.9,1748.6,928.4,1722.4,808.2,1651.9z M1174.5,1568.9
		c77.4-44.2,124.4-78.8,124.4-94c0-23.5-236.3-167.2-275-167.2c-34.6,1.4-270.9,143.7-273.7,167.2c-4.1,20.7,235,164.5,276.4,164.5
		C1039,1639.4,1106.7,1607.6,1174.5,1568.9z M1340.3,1353.3V1287l-82.9-45.6l-82.9-45.6v-89.8v-88.5l-51.1,31.8
		c-51.1,31.8-52.5,35.9-56.7,121.6l-2.8,88.5l134.1,78.8c74.6,42.8,136.8,78.8,139.6,80.2
		C1338.9,1418.3,1340.3,1389.3,1340.3,1353.3z M864.9,1332.6l129.9-73.3v-85.7V1088l-58-34.6l-59.4-35.9l-6.9,92.6l-6.9,92.6
		l-71.9,42.8c-69.1,40.1-73.3,44.2-73.3,100.9c0,31.8,4.1,58,8.3,58S793,1371.3,864.9,1332.6z M721.1,1204.1l49.8-29l-149.3-85.7
		l-149.3-85.7l-121.6,70.5c-67.7,38.7-127.2,74.6-132.7,80.2c-5.5,4.1,52.5,47,129.9,92.6l141,85.7l89.8-49.8
		C628.5,1255.2,692.1,1219.3,721.1,1204.1z M1684.5,1263.5c65-38.7,129.9-78.8,143.7-88.5c22.1-13.8,11.1-24.9-102.3-89.8
		c-70.5-40.1-134.1-71.9-143.7-71.9c-16.6,0-301.3,157.6-294.4,163.1c6.9,6.9,266.8,157.6,272.3,158.9
		C1562.8,1335.4,1618.1,1303.6,1684.5,1263.5z M828.9,1049.3v-80.2L758.4,929c-114.7-63.6-123-77.4-123-188v-96.7l-55.3-27.6
		c-29-15.2-60.8-27.6-69.1-27.6s-13.8,66.3-13.8,185.2v185.2l149.3,84.3c81.5,45.6,156.2,84.3,165.9,84.3
		C823.4,1128,828.9,1103.2,828.9,1049.3z M1412.2,1042.4l149.3-87.1V772.8c0-138.2-4.1-183.8-16.6-183.8c-9.7,0-44.2,13.8-76,30.4
		l-59.4,31.8V748c0,52.5-5.5,103.7-11.1,112c-5.5,8.3-45.6,35.9-88.5,60.8l-80.2,44.2v81.5c0,52.5,5.5,81.5,16.6,81.5
		C1254.6,1128,1329.3,1089.3,1412.2,1042.4z M441.9,785.3V629.1l-30.4,16.6c-18,9.7-80.2,44.2-138.2,77.4l-107.8,62.2v156.2V1099
		l138.2-78.8l136.8-78.8L441.9,785.3z M1893.2,944.2V789.4l-71.9-42.8c-40.1-23.5-102.3-59.4-138.2-81.5l-66.3-37.3v157.6v157.6
		l135.4,77.4c73.3,42.8,135.4,78.8,138.2,78.8C1891.8,1100.4,1893.2,1029.9,1893.2,944.2z M1174.5,938.7
		c76-44.2,138.2-82.9,138.2-87.1c0-8.3-269.5-165.9-286.1-165.9c-19.3,0-280.6,153.4-280.6,165.9s259.8,165.9,280.6,165.9
		C1032.1,1017.5,1098.4,981.5,1174.5,938.7z M1358.3,449.4c-15.2-13.8-277.8-164.5-287.5-164.5c-4.1,0-5.5,76-4.1,168.6l4.1,170
		l145.1,84.3l145.1,82.9l4.1-165.9C1366.6,535.1,1363.8,454.9,1358.3,449.4z M849.7,701l138.2-81.5l4.1-174.1l4.1-174.1l-149.3,87.1
		l-149.3,87.1l-4.1,168.6c-1.4,92.6,1.4,168.6,6.9,168.6C705.9,781.1,773.6,745.2,849.7,701z M623,408
		c67.7-40.1,127.2-76,129.9-82.9c4.1-5.5-58-47-136.8-92.6l-142.4-81.5l-127.2,71.9c-70.5,40.1-127.2,77.4-128.5,82.9
		c0,8.3,255.7,165.9,277.8,171.4C498.6,478.4,556.7,446.7,623,408z M1792.3,340.2l59.4-35.9l-135.4-77.4l-134.1-77.4l-55.3,31.8
		c-30.4,18-98.1,56.7-149.3,87.1l-94,53.9l135.4,77.4l134.1,77.4l91.2-49.8C1694.1,399.7,1760.5,361,1792.3,340.2z M826.2,192.3
		l-4.1-78.8l-74.6-42.8c-96.7-56.7-112-80.2-112-168.6c0-67.7-2.8-76-44.2-100.9C500-254.1,495.8-247.2,500-59.2l4.1,167.2
		l138.2,81.5C822,294.6,831.7,294.6,826.2,192.3z M1415,186.8l146.5-84.3V-68.9c0-94-5.5-171.4-12.4-171.4s-40.1,15.2-71.9,34.6
		l-60.8,33.2l-6.9,94l-6.9,92.6l-85.7,49.8l-87.1,48.4v80.2c0,58,5.5,78.8,19.3,78.8C1260.2,271.1,1334.8,233.8,1415,186.8z
		 M370.1,127.4l71.9-42.8V-71.6v-157.6l-30.4,19.3c-18,11.1-80.2,47-138.2,80.2L165.5-68.9V88.7v157.6l66.3-37.3
		C267.8,186.8,330,150.9,370.1,127.4z M1893.2,88.7l-1.4-156.2L1755-146.3l-138.2-78.8v157.6V90.1l135.4,76
		c73.3,42.8,135.4,77.4,138.2,77.4C1891.8,243.5,1893.2,173,1893.2,88.7z M1188.3,102.5c82.9-48.4,152-94,152-103.7
		c0-16.6-287.5-183.8-316.5-183.8S718.4-17.7,718.4,0.2c0,15.2,282,186.6,308.2,188C1032.1,188.2,1105.4,149.5,1188.3,102.5z
		 M994.8-388.1c0-85.7-2.8-156.2-5.5-156.2c-2.8,0-71.9,38.7-152,84.3l-146.5,85.7v156.2v154.8l152-84.3l150.7-85.7L994.8-388.1z
		 M1368-215.4v-156.2l-87.1-49.8c-47-27.6-114.7-66.3-150.7-87.1l-66.3-38.7v157.6v156.2l149.3,85.7c81.5,48.4,149.3,87.1,152,87.1
		C1366.6-60.6,1368-131.1,1368-215.4z"/>
</g>
<g>
	<path class="st0" d="M235,88.2c1.5,2.5,3.1,5.6,4.9,9.2c1.8,3.6,3.6,7.5,5.5,11.5c1.9,4,3.7,8.1,5.5,12.2c1.8,4.1,3.5,8,5,11.5
		c1.5-3.5,3.2-7.3,5-11.5c1.8-4.1,3.6-8.2,5.5-12.2c1.9-4,3.7-7.8,5.5-11.5c1.8-3.6,3.4-6.7,4.9-9.2h11.3c0.6,5,1.2,10.4,1.7,16
		c0.5,5.7,1,11.4,1.5,17.4c0.4,5.9,0.8,11.9,1.2,17.9c0.4,6,0.7,11.8,1,17.5h-12.3c-0.3-8-0.6-16.2-1-24.7
		c-0.4-8.5-0.9-16.7-1.7-24.6c-0.7,1.5-1.6,3.3-2.6,5.5c-1,2.1-2.1,4.4-3.2,6.9c-1.1,2.5-2.3,5-3.4,7.7c-1.2,2.6-2.3,5.2-3.4,7.7
		c-1.1,2.5-2.1,4.8-3,6.9c-0.9,2.1-1.7,4-2.4,5.5H251c-0.7-1.5-1.5-3.4-2.4-5.6c-0.9-2.2-1.9-4.5-3-7c-1.1-2.5-2.2-5-3.4-7.7
		c-1.2-2.6-2.3-5.2-3.4-7.6c-1.1-2.4-2.2-4.7-3.2-6.9c-1-2.1-1.9-4-2.6-5.4c-0.7,7.9-1.3,16.1-1.7,24.6c-0.4,8.5-0.7,16.7-1,24.7
		h-12.3c0.3-5.7,0.6-11.6,1-17.7c0.4-6.1,0.8-12.1,1.2-18.1c0.4-6,0.9-11.8,1.5-17.4c0.5-5.6,1.1-10.8,1.7-15.6H235z"/>
	<path class="st0" d="M320.4,89.9c0,2.2-0.7,4-2.2,5.4c-1.5,1.3-3.2,2-5.2,2c-2.1,0-3.8-0.7-5.3-2c-1.5-1.3-2.2-3.1-2.2-5.4
		c0-2.3,0.7-4.1,2.2-5.5c1.5-1.3,3.2-2,5.3-2c2,0,3.7,0.7,5.2,2C319.7,85.8,320.4,87.6,320.4,89.9z M319.2,157h-12v-51.9h12V157z"/>
	<path class="st0" d="M331.5,131.1c0-3.8,0.6-7.4,1.8-10.8c1.2-3.3,2.9-6.2,5.1-8.7c2.2-2.4,4.9-4.4,8.1-5.8
		c3.2-1.4,6.7-2.1,10.7-2.1c4.9,0,9.5,0.9,13.9,2.7l-2.6,9.8c-1.4-0.6-3-1.1-4.7-1.5c-1.8-0.4-3.6-0.6-5.6-0.6
		c-4.7,0-8.3,1.5-10.7,4.4c-2.4,2.9-3.7,7.1-3.7,12.4c0,5.2,1.2,9.2,3.5,12.3c2.3,3,6.2,4.5,11.7,4.5c2,0,4.1-0.2,6.1-0.6
		c2-0.4,3.7-0.9,5.2-1.5l1.7,9.9c-1.3,0.7-3.3,1.3-6,1.8c-2.7,0.5-5.4,0.8-8.3,0.8c-4.4,0-8.3-0.7-11.6-2s-6-3.2-8.1-5.7
		c-2.1-2.4-3.8-5.3-4.8-8.6C332.1,138.6,331.5,135,331.5,131.1z"/>
	<path class="st0" d="M410.8,115.9c-1-0.3-2.4-0.7-4.1-1c-1.8-0.4-3.8-0.5-6.1-0.5c-1.3,0-2.7,0.1-4.2,0.4c-1.5,0.3-2.5,0.5-3.1,0.7
		V157h-12v-49.4c2.3-0.9,5.2-1.7,8.7-2.4c3.5-0.8,7.3-1.1,11.6-1.1c0.8,0,1.7,0,2.8,0.1c1.1,0.1,2.1,0.2,3.2,0.4
		c1.1,0.2,2.1,0.4,3.1,0.6c1,0.2,1.8,0.4,2.4,0.6L410.8,115.9z"/>
	<path class="st0" d="M468.1,131c0,4.1-0.6,7.8-1.8,11.2s-2.9,6.2-5.1,8.6c-2.2,2.4-4.8,4.2-7.9,5.6c-3.1,1.3-6.5,2-10.2,2
		c-3.7,0-7.1-0.7-10.1-2c-3-1.3-5.7-3.2-7.8-5.6c-2.2-2.4-3.9-5.3-5.1-8.6c-1.2-3.4-1.8-7.1-1.8-11.2c0-4.1,0.6-7.8,1.8-11.2
		c1.2-3.3,2.9-6.2,5.2-8.6c2.2-2.4,4.8-4.2,7.9-5.5c3-1.3,6.4-1.9,10-1.9c3.6,0,7,0.6,10.1,1.9c3.1,1.3,5.7,3.1,7.9,5.5
		c2.2,2.4,3.9,5.2,5.1,8.6C467.5,123.2,468.1,126.9,468.1,131z M455.8,131c0-5.2-1.1-9.2-3.3-12.3c-2.2-3-5.3-4.5-9.3-4.5
		s-7.1,1.5-9.3,4.5c-2.2,3-3.3,7.1-3.3,12.3c0,5.2,1.1,9.4,3.3,12.4c2.2,3,5.3,4.6,9.3,4.6s7.1-1.5,9.3-4.6
		C454.7,140.3,455.8,136.2,455.8,131z"/>
	<path class="st0" d="M497.8,147.6c4.5,0,7.8-0.8,9.8-2.3c2-1.5,3.1-3.7,3.1-6.4c0-1.7-0.3-3.1-1-4.3c-0.7-1.2-1.7-2.3-3-3.2
		c-1.3-1-2.9-1.9-4.7-2.7c-1.9-0.8-4-1.6-6.3-2.4c-2.4-0.9-4.7-1.8-6.9-2.8c-2.2-1-4.2-2.3-5.9-3.8c-1.7-1.5-3-3.3-4.1-5.5
		c-1-2.1-1.5-4.7-1.5-7.6c0-6.2,2.1-11.1,6.4-14.6c4.3-3.5,10.2-5.3,17.6-5.3c4.3,0,8.1,0.5,11.5,1.4c3.3,1,6,2,7.9,3.1l-3.9,10.1
		c-2.2-1.3-4.7-2.2-7.4-2.9c-2.7-0.7-5.4-1-8.3-1c-3.4,0-6,0.7-7.9,2.1c-1.9,1.4-2.8,3.3-2.8,5.9c0,1.5,0.3,2.8,0.9,3.9
		c0.6,1.1,1.5,2.1,2.7,2.9c1.2,0.9,2.5,1.7,4.1,2.4c1.6,0.7,3.3,1.4,5.1,2.1c3.2,1.2,6.1,2.4,8.7,3.6c2.5,1.2,4.7,2.7,6.4,4.4
		c1.8,1.7,3.1,3.7,4,6c0.9,2.3,1.4,5,1.4,8.3c0,6.2-2.2,11-6.6,14.4c-4.4,3.4-10.8,5.1-19.3,5.1c-2.8,0-5.4-0.2-7.8-0.5
		c-2.3-0.4-4.4-0.8-6.2-1.3c-1.8-0.5-3.4-1.1-4.7-1.6c-1.3-0.6-2.4-1.1-3.2-1.5l3.7-10.2c1.8,1,4.2,2,7.2,3
		C489.8,147.2,493.5,147.6,497.8,147.6z"/>
	<path class="st0" d="M531.2,131.3c0-4.6,0.7-8.6,2-12c1.4-3.4,3.2-6.3,5.4-8.6c2.2-2.3,4.8-4,7.7-5.2c2.9-1.2,5.9-1.7,8.9-1.7
		c7.1,0,12.7,2.2,16.7,6.6c4,4.4,6,11,6,19.8c0,0.7,0,1.4,0,2.2c0,0.8-0.1,1.6-0.1,2.2h-34.2c0.3,4.2,1.8,7.4,4.4,9.7
		c2.6,2.3,6.4,3.4,11.4,3.4c2.9,0,5.6-0.3,8-0.8c2.4-0.5,4.3-1.1,5.7-1.7l1.6,9.8c-0.7,0.3-1.6,0.7-2.7,1c-1.2,0.4-2.5,0.7-4,1
		s-3.1,0.5-4.8,0.7c-1.7,0.2-3.5,0.3-5.3,0.3c-4.6,0-8.5-0.7-11.9-2c-3.4-1.4-6.2-3.2-8.3-5.7c-2.2-2.4-3.8-5.3-4.9-8.5
		C531.8,138.8,531.2,135.2,531.2,131.3z M566,125.9c0-1.7-0.2-3.2-0.7-4.7c-0.5-1.5-1.1-2.8-2-3.9s-2-2-3.3-2.6
		c-1.3-0.6-2.8-0.9-4.6-0.9c-1.9,0-3.5,0.3-4.9,1c-1.4,0.7-2.6,1.6-3.5,2.7c-1,1.1-1.7,2.4-2.2,3.9c-0.5,1.5-0.9,2.9-1.1,4.5H566z"
		/>
	<path class="st0" d="M620.3,115.9c-1-0.3-2.4-0.7-4.1-1c-1.8-0.4-3.8-0.5-6.1-0.5c-1.3,0-2.7,0.1-4.2,0.4c-1.5,0.3-2.5,0.5-3.1,0.7
		V157h-12v-49.4c2.3-0.9,5.2-1.7,8.7-2.4c3.5-0.8,7.3-1.1,11.6-1.1c0.8,0,1.7,0,2.8,0.1c1.1,0.1,2.1,0.2,3.2,0.4
		c1.1,0.2,2.1,0.4,3.1,0.6c1,0.2,1.8,0.4,2.4,0.6L620.3,115.9z"/>
	<path class="st0" d="M645.9,157c-3.3-6.8-6.7-14.6-10.2-23.5c-3.5-8.8-6.7-18.3-9.5-28.4H639c0.7,2.9,1.6,6,2.5,9.4
		c1,3.3,2,6.7,3.1,10c1.1,3.3,2.2,6.6,3.4,9.7c1.2,3.1,2.2,6,3.2,8.5c1-2.5,2.1-5.3,3.2-8.5c1.1-3.1,2.2-6.4,3.3-9.7
		c1.1-3.3,2.1-6.7,3.1-10c1-3.3,1.9-6.5,2.6-9.4h12.4c-2.9,10.1-6,19.6-9.5,28.4c-3.5,8.8-6.9,16.7-10.2,23.5H645.9z"/>
	<path class="st0" d="M698.1,89.9c0,2.2-0.7,4-2.2,5.4c-1.5,1.3-3.2,2-5.2,2c-2.1,0-3.8-0.7-5.3-2c-1.5-1.3-2.2-3.1-2.2-5.4
		c0-2.3,0.7-4.1,2.2-5.5c1.5-1.3,3.2-2,5.3-2c2,0,3.7,0.7,5.2,2C697.3,85.8,698.1,87.6,698.1,89.9z M696.8,157h-12v-51.9h12V157z"/>
	<path class="st0" d="M709.2,131.1c0-3.8,0.6-7.4,1.8-10.8c1.2-3.3,2.9-6.2,5.1-8.7c2.2-2.4,4.9-4.4,8.1-5.8
		c3.2-1.4,6.7-2.1,10.7-2.1c4.9,0,9.5,0.9,13.9,2.7l-2.6,9.8c-1.4-0.6-3-1.1-4.7-1.5c-1.8-0.4-3.6-0.6-5.6-0.6
		c-4.7,0-8.3,1.5-10.7,4.4c-2.4,2.9-3.7,7.1-3.7,12.4c0,5.2,1.2,9.2,3.5,12.3c2.3,3,6.2,4.5,11.7,4.5c2,0,4.1-0.2,6.1-0.6
		c2-0.4,3.7-0.9,5.2-1.5l1.7,9.9c-1.3,0.7-3.3,1.3-6,1.8c-2.7,0.5-5.4,0.8-8.3,0.8c-4.4,0-8.3-0.7-11.6-2c-3.3-1.4-6-3.2-8.1-5.7
		c-2.1-2.4-3.8-5.3-4.8-8.6C709.7,138.6,709.2,135,709.2,131.1z"/>
	<path class="st0" d="M756,131.3c0-4.6,0.7-8.6,2-12c1.4-3.4,3.2-6.3,5.4-8.6c2.2-2.3,4.8-4,7.7-5.2c2.9-1.2,5.9-1.7,8.9-1.7
		c7.1,0,12.7,2.2,16.7,6.6c4,4.4,6,11,6,19.8c0,0.7,0,1.4-0.1,2.2c0,0.8-0.1,1.6-0.1,2.2h-34.2c0.3,4.2,1.8,7.4,4.4,9.7
		c2.6,2.3,6.4,3.4,11.4,3.4c2.9,0,5.6-0.3,8-0.8c2.4-0.5,4.3-1.1,5.7-1.7l1.6,9.8c-0.7,0.3-1.6,0.7-2.7,1c-1.2,0.4-2.5,0.7-4,1
		c-1.5,0.3-3.1,0.5-4.8,0.7c-1.7,0.2-3.5,0.3-5.3,0.3c-4.6,0-8.5-0.7-11.9-2s-6.2-3.2-8.3-5.7c-2.2-2.4-3.8-5.3-4.9-8.5
		C756.5,138.8,756,135.2,756,131.3z M790.8,125.9c0-1.7-0.2-3.2-0.7-4.7c-0.5-1.5-1.1-2.8-2-3.9c-0.9-1.1-2-2-3.3-2.6
		c-1.3-0.6-2.8-0.9-4.6-0.9c-1.9,0-3.5,0.3-4.9,1c-1.4,0.7-2.6,1.6-3.5,2.7c-1,1.1-1.7,2.4-2.2,3.9c-0.5,1.5-0.9,2.9-1.1,4.5H790.8z
		"/>
	<path class="st0" d="M828.5,148.3c3.2,0,5.5-0.4,6.9-1.1c1.5-0.8,2.2-2.1,2.2-3.9c0-1.7-0.8-3.1-2.3-4.3c-1.6-1.1-4.1-2.3-7.7-3.7
		c-2.2-0.8-4.2-1.6-6-2.5c-1.8-0.9-3.4-1.9-4.7-3.1c-1.3-1.2-2.4-2.6-3.1-4.3c-0.8-1.7-1.1-3.8-1.1-6.2c0-4.8,1.8-8.5,5.3-11.3
		c3.5-2.7,8.3-4.1,14.3-4.1c3,0,6,0.3,8.7,0.8c2.8,0.6,4.9,1.1,6.2,1.6L845,116c-1.3-0.6-3-1.1-5.1-1.6c-2-0.5-4.4-0.7-7.1-0.7
		c-2.4,0-4.4,0.4-6,1.2c-1.5,0.8-2.3,2.1-2.3,3.8c0,0.9,0.1,1.6,0.4,2.3c0.3,0.7,0.8,1.3,1.5,1.8c0.7,0.6,1.7,1.1,2.9,1.7
		c1.2,0.6,2.6,1.1,4.4,1.7c2.8,1.1,5.3,2.1,7.2,3.1c2,1,3.6,2.2,4.9,3.5c1.3,1.3,2.2,2.8,2.8,4.4c0.6,1.7,0.9,3.6,0.9,6
		c0,5-1.8,8.7-5.5,11.3c-3.7,2.5-8.9,3.8-15.7,3.8c-4.6,0-8.2-0.4-11-1.1c-2.8-0.8-4.7-1.4-5.9-1.8l2.1-10c1.8,0.7,3.9,1.4,6.4,2.1
		C822.5,148,825.3,148.3,828.5,148.3z"/>
	<path class="st0" d="M874.3,150.4c0,2.3-0.8,4.2-2.3,5.7c-1.6,1.5-3.4,2.2-5.6,2.2c-2.2,0-4.1-0.7-5.7-2.2
		c-1.5-1.5-2.3-3.3-2.3-5.7c0-2.3,0.8-4.2,2.3-5.7c1.5-1.5,3.4-2.2,5.7-2.2c2.2,0,4,0.7,5.6,2.2
		C873.6,146.2,874.3,148.1,874.3,150.4z"/>
	<path class="st0" d="M904.5,103.8c4,0,7.3,0.5,10,1.5c2.7,1,4.9,2.4,6.5,4.2c1.6,1.8,2.8,4,3.5,6.5c0.7,2.5,1,5.3,1,8.4v31.4
		c-1.9,0.4-4.6,0.9-8.4,1.4c-3.7,0.6-8,0.8-12.6,0.8c-3.1,0-6-0.3-8.5-0.9c-2.6-0.6-4.8-1.6-6.6-2.9c-1.8-1.3-3.2-3-4.3-5.2
		c-1-2.1-1.5-4.7-1.5-7.8c0-3,0.6-5.5,1.7-7.5c1.2-2,2.7-3.7,4.7-5c2-1.3,4.3-2.2,6.9-2.8c2.6-0.6,5.3-0.8,8.2-0.8
		c1.3,0,2.7,0.1,4.2,0.2c1.5,0.2,3,0.4,4.7,0.8v-2c0-1.4-0.2-2.7-0.5-4c-0.3-1.3-0.9-2.4-1.7-3.3c-0.8-1-1.9-1.7-3.3-2.2
		c-1.4-0.5-3.1-0.8-5.1-0.8c-2.8,0-5.3,0.2-7.6,0.6c-2.3,0.4-4.2,0.9-5.7,1.4l-1.5-9.7c1.5-0.5,3.7-1.1,6.6-1.6
		C898.1,104.1,901.2,103.8,904.5,103.8z M905.5,148.5c3.7,0,6.5-0.2,8.4-0.6v-13.3c-0.7-0.2-1.6-0.4-2.9-0.6
		c-1.3-0.2-2.6-0.3-4.2-0.3c-1.3,0-2.7,0.1-4,0.3c-1.4,0.2-2.6,0.6-3.7,1.1c-1.1,0.5-2,1.3-2.6,2.2c-0.7,1-1,2.2-1,3.6
		c0,2.8,0.9,4.8,2.7,5.9C900,148,902.4,148.5,905.5,148.5z"/>
	<path class="st0" d="M958.3,158c-3.6-0.1-6.5-0.5-8.9-1.2c-2.3-0.7-4.2-1.8-5.6-3.1c-1.4-1.4-2.4-3-2.9-5.1c-0.6-2-0.8-4.3-0.8-6.9
		V82l12-2v59.4c0,1.5,0.1,2.7,0.3,3.7c0.2,1,0.6,1.8,1.2,2.5c0.6,0.7,1.4,1.2,2.4,1.6c1,0.4,2.3,0.6,3.9,0.8L958.3,158z"/>
</g>
</svg>
